<svg width="180" height="180" viewBox="0 0 180 180" fill="none" xmlns="http://www.w3.org/2000/svg">
  <defs>
    <linearGradient id="outthegc-mark-gradient-file" x1="46" y1="18" x2="134" y2="154" gradientUnits="userSpaceOnUse">
      <stop offset="0%" stop-color="#4FE0BC" />
      <stop offset="55%" stop-color="#42B7F5" />
      <stop offset="100%" stop-color="#A43FE1" />
    </linearGradient>
  </defs>
  <path d="M90 17C55.05 17 26.5 44.92 26.5 80.36C26.5 112.22 51.92 148.44 80.89 172.87C86.39 177.53 93.61 177.53 99.11 172.87C128.08 148.44 153.5 112.22 153.5 80.36C153.5 44.92 124.95 17 90 17Z" fill="url(#outthegc-mark-gradient-file)"/>
  <path d="M125.41 49.97C122.26 49.9 118.07 51.93 113.07 55.94L95.42 71.04L73.47 67.88C67.25 67.02 63 68.8 59.72 73.29L83.49 86.17L57.35 112.08L44.83 110.61C43.15 110.42 42.31 112.55 43.66 113.61L57.8 124.64L59.75 140.77C59.98 142.51 62.16 143.04 63.18 141.61L71.28 130.22L97.53 103.97L101.35 129.78C105.77 126.55 107.82 122.34 106.96 116.17L103.71 94.28L118.88 76.56C126.28 67.43 128.54 61.08 128.23 56.39C128.06 52.56 127.33 50.02 125.41 49.97Z" fill="white"/>
  <path d="M61.89 115.38C53.28 120.76 42.22 122.36 30.63 119.8C29.28 119.5 28.18 121.05 29.01 122.14L29.6 122.88C38.66 134.64 55.88 136.89 67.68 127.98L77.19 120.79L61.89 115.38Z" fill="white" fill-opacity="0.96"/>
</svg>
